<svg width="56" height="84" viewBox="0 0 56 84" fill="none" xmlns="http://www.w3.org/2000/svg">
<path d="M31.4185 66.0759C31.6528 66.4175 31.5658 66.8843 31.2241 67.1185C30.8825 67.3528 30.4157 67.2658 30.1815 66.9241L31.4185 66.0759ZM14 42L13.3815 42.4241C13.2062 42.1685 13.2062 41.8315 13.3815 41.5759L14 42ZM30.1815 17.0759C30.4157 16.7342 30.8825 16.6472 31.2241 16.8815C31.5658 17.1157 31.6528 17.5825 31.4185 17.9241L30.1815 17.0759ZM42.6185 61.9913C42.8528 62.3329 42.7658 62.7998 42.4242 63.034C42.0826 63.2683 41.6157 63.1813 41.3815 62.8397L42.6185 61.9913ZM28 42L27.3815 42.4242C27.2062 42.1686 27.2062 41.8314 27.3815 41.5758L28 42ZM41.3815 21.1603C41.6157 20.8187 42.0826 20.7317 42.4242 20.966C42.7658 21.2002 42.8528 21.6671 42.6185 22.0087L41.3815 21.1603ZM30.1815 66.9241L13.3815 42.4241L14.6185 41.5759L31.4185 66.0759L30.1815 66.9241ZM13.3815 41.5759L30.1815 17.0759L31.4185 17.9241L14.6185 42.4241L13.3815 41.5759ZM41.3815 62.8397L27.3815 42.4242L28.6185 41.5758L42.6185 61.9913L41.3815 62.8397ZM27.3815 41.5758L41.3815 21.1603L42.6185 22.0087L28.6185 42.4242L27.3815 41.5758Z" fill="#2EC55E"/>
</svg>
