<svg width="17" height="18" viewBox="0 0 17 18" fill="none" xmlns="http://www.w3.org/2000/svg">
<path d="M7.95834 6.13105C7.48465 6.13105 7.04352 6.21987 6.63496 6.39751C6.22639 6.57514 5.8652 6.81791 5.55138 7.12581C5.23755 7.43371 4.99183 7.79787 4.81419 8.21827C4.63655 8.63868 4.54774 9.07981 4.54774 9.54166C4.54774 10.0154 4.63655 10.4565 4.81419 10.865C4.99183 11.2736 5.23459 11.6348 5.5425 11.9486C5.8504 12.2624 6.21159 12.5082 6.62607 12.6858C7.04056 12.8634 7.48465 12.9523 7.95834 12.9523C8.42612 12.9523 8.86724 12.8634 9.28173 12.6858C9.69621 12.5082 10.0574 12.2654 10.3653 11.9575C10.6732 11.6496 10.9189 11.2884 11.1025 10.8739C11.2861 10.4594 11.3749 10.0154 11.3689 9.54166C11.3689 9.1627 11.3038 8.78375 11.1735 8.40479H12.3637C12.4111 8.59427 12.4466 8.78375 12.4703 8.97322C12.494 9.1627 12.5058 9.35218 12.5058 9.54166C12.5058 10.1693 12.3874 10.7585 12.1505 11.3091C11.9137 11.8598 11.588 12.3394 11.1735 12.748C10.7591 13.1565 10.2765 13.4822 9.72582 13.725C9.17515 13.9677 8.58599 14.0891 7.95834 14.0891C7.3307 14.0891 6.74154 13.9707 6.19087 13.7339C5.6402 13.497 5.16058 13.1713 4.75202 12.7569C4.34345 12.3424 4.01779 11.8598 3.77502 11.3091C3.53225 10.7585 3.41383 10.1693 3.41975 9.54166C3.41975 8.91401 3.53817 8.32485 3.77502 7.77418C4.01187 7.22351 4.33457 6.7439 4.74313 6.33533C5.1517 5.92677 5.63427 5.60111 6.19087 5.35834C6.74746 5.11557 7.33662 4.99418 7.95834 4.99418C8.14782 4.99418 8.3373 5.00603 8.52678 5.02971C8.71625 5.0534 8.90573 5.08892 9.09521 5.13629V6.32645C8.71625 6.19619 8.3373 6.13105 7.95834 6.13105ZM15.65 7.50773C15.8276 8.17682 15.9164 8.8548 15.9164 9.54166C15.9164 10.27 15.8217 10.9716 15.6322 11.6466C15.4427 12.3217 15.1763 12.9552 14.8328 13.5473C14.4894 14.1395 14.072 14.6783 13.5805 15.1638C13.0891 15.6494 12.5532 16.0638 11.9729 16.4073C11.3926 16.7507 10.7591 17.0201 10.0722 17.2155C9.38535 17.4109 8.68073 17.5057 7.95834 17.4997C7.23003 17.4997 6.52837 17.405 5.85336 17.2155C5.17834 17.026 4.54478 16.7596 3.95266 16.4162C3.36054 16.0727 2.82171 15.6553 2.33617 15.1638C1.85063 14.6724 1.43615 14.1365 1.09272 13.5562C0.749292 12.9759 0.479878 12.3424 0.284478 11.6555C0.0890791 10.9687 -0.00565996 10.264 0.000261229 9.54166C0.000261229 8.81335 0.0950003 8.11169 0.284478 7.43667C0.473956 6.76166 0.74041 6.12809 1.08384 5.53597C1.42727 4.94385 1.84471 4.40503 2.33617 3.91949C2.82763 3.43395 3.3635 3.01947 3.94377 2.67604C4.52405 2.33261 5.15762 2.06319 5.84448 1.86779C6.53133 1.6724 7.23596 1.57766 7.95834 1.58358C8.6452 1.58358 9.32318 1.6724 9.99227 1.85003L9.09521 2.74709V2.81815C8.90573 2.78854 8.71625 2.76486 8.52678 2.74709C8.3373 2.72933 8.14782 2.72045 7.95834 2.72045C7.3307 2.72045 6.72673 2.80038 6.14646 2.96025C5.56618 3.12013 5.02439 3.35105 4.52109 3.65303C4.01779 3.95501 3.55594 4.31029 3.13553 4.71885C2.71513 5.12741 2.35986 5.5863 2.06972 6.09553C1.77958 6.60475 1.55161 7.1495 1.38582 7.72977C1.22003 8.31005 1.13713 8.91401 1.13713 9.54166C1.13713 10.1693 1.21707 10.7733 1.37694 11.3535C1.53681 11.9338 1.76774 12.4756 2.06972 12.9789C2.3717 13.4822 2.72697 13.9441 3.13553 14.3645C3.54409 14.7849 4.00299 15.1401 4.51221 15.4303C5.02143 15.7204 5.56618 15.9484 6.14646 16.1142C6.72673 16.28 7.3307 16.3629 7.95834 16.3629C8.58599 16.3629 9.18995 16.2829 9.77023 16.1231C10.3505 15.9632 10.8923 15.7323 11.3956 15.4303C11.8989 15.1283 12.3607 14.773 12.7812 14.3645C13.2016 13.9559 13.5568 13.497 13.847 12.9878C14.1371 12.4786 14.3651 11.9338 14.5309 11.3535C14.6967 10.7733 14.7796 10.1693 14.7796 9.54166C14.7796 9.35218 14.7707 9.1627 14.7529 8.97322C14.7351 8.78375 14.7115 8.59427 14.6819 8.40479H14.7529L15.65 7.50773ZM10.2321 6.45968V3.91061L13.6427 0.5V3.85732H17L13.5894 7.26792H11.0403L9.05968 9.24856C9.08337 9.33738 9.09521 9.43508 9.09521 9.54166C9.09521 9.70153 9.0656 9.84956 9.00639 9.98575C8.94718 10.1219 8.86724 10.2404 8.76658 10.341C8.66592 10.4417 8.54454 10.5246 8.40243 10.5897C8.26032 10.6548 8.11229 10.6844 7.95834 10.6785C7.79847 10.6785 7.65044 10.6489 7.51425 10.5897C7.37806 10.5305 7.25964 10.4506 7.15898 10.3499C7.05832 10.2492 6.97542 10.1279 6.91029 9.98575C6.84516 9.84364 6.81555 9.69561 6.82147 9.54166C6.82147 9.38179 6.85108 9.23376 6.91029 9.09757C6.9695 8.96138 7.04944 8.84296 7.1501 8.7423C7.25076 8.64164 7.37214 8.55874 7.51425 8.49361C7.65636 8.42847 7.80439 8.39887 7.95834 8.40479C8.06492 8.40479 8.16262 8.41663 8.25144 8.44032L10.2321 6.45968ZM11.3689 6.13105H13.1187L14.2555 4.99418H12.5058V3.24447L11.3689 4.38134V6.13105Z" fill="black"/>
</svg>
