<svg width="31" height="29" viewBox="0 0 31 29" fill="none" xmlns="http://www.w3.org/2000/svg">
<path d="M12.3333 0.767578C9.05414 0.767578 6.39583 3.5658 6.39583 7.01758C6.39583 10.4694 9.05414 13.2676 12.3333 13.2676C15.6125 13.2676 18.2708 10.4694 18.2708 7.01758C18.2708 3.5658 15.6125 0.767578 12.3333 0.767578Z" fill="black"/>
<path d="M6 16.6009C2.72081 16.6009 0.0625 19.3991 0.0625 22.8509V24.8314C0.0625 26.0868 0.926816 27.1572 2.10385 27.3594C8.87866 28.5237 15.788 28.5237 22.5628 27.3594C23.7399 27.1572 24.6042 26.0868 24.6042 24.8314V22.8509C24.6042 19.3991 21.9459 16.6009 18.6667 16.6009H18.127C17.8348 16.6009 17.5446 16.6495 17.2669 16.745L15.8965 17.216C13.5812 18.0118 11.0855 18.0118 8.77018 17.216L7.39978 16.745C7.1221 16.6495 6.83182 16.6009 6.53971 16.6009H6Z" fill="black"/>
<path d="M25.7917 4.93424C26.4475 4.93424 26.9792 5.49389 26.9792 6.18424V9.10091H29.75C30.4058 9.10091 30.9375 9.66055 30.9375 10.3509C30.9375 11.0413 30.4058 11.6009 29.75 11.6009H26.9792V14.5176C26.9792 15.2079 26.4475 15.7676 25.7917 15.7676C25.1358 15.7676 24.6042 15.2079 24.6042 14.5176V11.6009H21.8333C21.1775 11.6009 20.6458 11.0413 20.6458 10.3509C20.6458 9.66055 21.1775 9.10091 21.8333 9.10091H24.6042V6.18424C24.6042 5.49389 25.1358 4.93424 25.7917 4.93424Z" fill="black"/>
</svg>
