<svg width="19" height="32" viewBox="0 0 19 32" fill="none" xmlns="http://www.w3.org/2000/svg">
<path fill-rule="evenodd" clip-rule="evenodd" d="M8.74247 31.2137C3.88678 31.0574 0.101239 26.2466 0.287223 20.4685L0.686337 8.06895C0.817214 4.00289 3.69331 0.79586 7.11027 0.905844C10.5272 1.01583 13.1911 4.40118 13.0603 8.46724L12.654 21.0882C12.5782 23.4423 10.9131 25.299 8.9349 25.2353C6.95666 25.1716 5.4144 23.2117 5.49017 20.8576L5.88215 8.67949C5.90282 8.03748 6.35694 7.53111 6.89646 7.54847C7.43598 7.56584 7.8566 8.10037 7.83593 8.74238L7.44394 20.9205C7.4095 21.9905 8.11053 22.8814 9.00973 22.9104C9.90893 22.9393 10.6658 22.0954 10.7002 21.0253L11.1065 8.40435C11.196 5.62231 9.37336 3.30602 7.03544 3.23076C4.69751 3.15551 2.72966 5.3498 2.64011 8.13184L2.241 20.5314C2.09635 25.0255 5.04066 28.7672 8.8173 28.8887C12.5939 29.0103 15.7728 25.4657 15.9174 20.9716L16.3023 9.01489C16.323 8.37288 16.7771 7.86651 17.3166 7.88387C17.8561 7.90124 18.2767 8.43577 18.2561 9.07778L17.8712 21.0345C17.6852 26.8126 13.5982 31.37 8.74247 31.2137Z" fill="black"/>
</svg>
