<svg width="36" height="25" viewBox="0 0 36 25" fill="none" xmlns="http://www.w3.org/2000/svg">
<path d="M10.7542 12.5466C14.33 12.5466 17.0275 9.84908 17.0275 6.2733C17.0275 2.69752 14.33 0 10.7542 0C7.17845 0 4.48093 2.69752 4.48093 6.2733C4.48093 9.84908 7.17845 12.5466 10.7542 12.5466ZM12.5466 14.2458H8.96186C4.02029 14.2458 0 18.2661 0 23.2076V25H21.5085V23.2076C21.5085 18.2661 17.4882 14.2458 12.5466 14.2458ZM32.7879 5.80908L28.6779 9.91899L24.568 5.80908L22.0336 8.34349L26.1417 12.4516L22.0318 16.5615L24.5662 19.0959L28.6762 14.986L32.7879 19.0977L35.3223 16.5633L31.2124 12.4534L35.3223 8.34349L32.7879 5.80908Z" fill="black"/>
</svg>
