<svg width="27" height="27" viewBox="0 0 27 27" fill="none" xmlns="http://www.w3.org/2000/svg">
<path fill-rule="evenodd" clip-rule="evenodd" d="M11.2621 6.41044C12.1221 5.11799 11.9059 3.39068 10.754 2.35C9.60209 1.30931 7.86177 1.2691 6.663 2.25547C5.46423 3.24183 5.16853 4.95731 5.96789 6.2881C6.76724 7.61889 8.42059 8.16365 9.85446 7.56869C10.4275 7.3296 10.9172 6.92668 11.2621 6.41044Z" stroke="white" stroke-width="1.5" stroke-linecap="round" stroke-linejoin="round"/>
<path fill-rule="evenodd" clip-rule="evenodd" d="M11.2621 24.032C12.1221 22.7396 11.9059 21.0123 10.754 19.9716C9.60209 18.9309 7.86177 18.8907 6.663 19.877C5.46423 20.8634 5.16853 22.5789 5.96789 23.9097C6.76724 25.2405 8.42059 25.7852 9.85446 25.1903C10.4275 24.9512 10.9172 24.5483 11.2621 24.032V24.032Z" stroke="white" stroke-width="1.5" stroke-linecap="round" stroke-linejoin="round"/>
<path fill-rule="evenodd" clip-rule="evenodd" d="M15.7379 15.2203C14.8779 13.9278 15.094 12.2005 16.246 11.1598C17.3979 10.1191 19.1382 10.0789 20.337 11.0653C21.5357 12.0516 21.8315 13.7671 21.0321 15.0979C20.2327 16.4287 18.5794 16.9735 17.1455 16.3785C16.5725 16.1394 16.0828 15.7365 15.7379 15.2203V15.2203Z" stroke="white" stroke-width="1.5" stroke-linecap="round" stroke-linejoin="round"/>
<path d="M11.7917 3.91113C11.3774 3.91113 11.0417 4.24692 11.0417 4.66113C11.0417 5.07535 11.3774 5.41113 11.7917 5.41113V3.91113ZM25.4583 5.41113C25.8725 5.41113 26.2083 5.07535 26.2083 4.66113C26.2083 4.24692 25.8725 3.91113 25.4583 3.91113V5.41113ZM5.51695 5.41113C5.93116 5.41113 6.26695 5.07535 6.26695 4.66113C6.26695 4.24692 5.93116 3.91113 5.51695 3.91113V5.41113ZM1.54166 3.91113C1.12744 3.91113 0.791656 4.24692 0.791656 4.66113C0.791656 5.07535 1.12744 5.41113 1.54166 5.41113V3.91113ZM11.7917 21.5343C11.3774 21.5343 11.0417 21.8701 11.0417 22.2843C11.0417 22.6985 11.3774 23.0343 11.7917 23.0343V21.5343ZM25.4583 23.0343C25.8725 23.0343 26.2083 22.6985 26.2083 22.2843C26.2083 21.8701 25.8725 21.5343 25.4583 21.5343V23.0343ZM5.51695 23.0343C5.93116 23.0343 6.26695 22.6985 6.26695 22.2843C6.26695 21.8701 5.93116 21.5343 5.51695 21.5343V23.0343ZM1.54166 21.5343C1.12744 21.5343 0.791656 21.8701 0.791656 22.2843C0.791656 22.6985 1.12744 23.0343 1.54166 23.0343V21.5343ZM15.2083 14.2227C15.6225 14.2227 15.9583 13.8869 15.9583 13.4727C15.9583 13.0585 15.6225 12.7227 15.2083 12.7227V14.2227ZM1.54166 12.7227C1.12744 12.7227 0.791656 13.0585 0.791656 13.4727C0.791656 13.8869 1.12744 14.2227 1.54166 14.2227V12.7227ZM21.483 12.7227C21.0688 12.7227 20.733 13.0585 20.733 13.4727C20.733 13.8869 21.0688 14.2227 21.483 14.2227V12.7227ZM25.4583 14.2227C25.8725 14.2227 26.2083 13.8869 26.2083 13.4727C26.2083 13.0585 25.8725 12.7227 25.4583 12.7227V14.2227ZM11.7917 5.41113H25.4583V3.91113H11.7917V5.41113ZM5.51695 3.91113H1.54166V5.41113H5.51695V3.91113ZM11.7917 23.0343H25.4583V21.5343H11.7917V23.0343ZM5.51695 21.5343H1.54166V23.0343H5.51695V21.5343ZM15.2083 12.7227H1.54166V14.2227H15.2083V12.7227ZM21.483 14.2227H25.4583V12.7227H21.483V14.2227Z" fill="white"/>
</svg>
