<svg width="25" height="23" viewBox="0 0 25 23" fill="none" xmlns="http://www.w3.org/2000/svg">
<path fill-rule="evenodd" clip-rule="evenodd" d="M4.34386 16.9159C2.98116 15.6281 2.0569 13.9983 1.68573 12.2288C1.31148 10.4543 1.50366 8.61739 2.23878 6.94234C2.96763 5.27669 4.21196 3.84748 5.81552 2.83421C9.06901 0.777592 13.3521 0.777592 16.6056 2.83421C18.2092 3.84748 19.4535 5.27669 20.1823 6.94234C20.9175 8.61739 21.1096 10.4543 20.7354 12.2288C20.3642 13.9983 19.44 15.6281 18.0773 16.9159C16.2726 18.6299 13.7964 19.5966 11.2106 19.5966C8.62473 19.5966 6.14853 18.6299 4.34386 16.9159V16.9159Z" stroke="white" stroke-width="1.5" stroke-linecap="round" stroke-linejoin="round"/>
<path d="M11.2729 4.84545C10.8607 4.88587 10.5593 5.25283 10.5997 5.66507C10.6401 6.0773 11.0071 6.37871 11.4193 6.33828L11.2729 4.84545ZM14.5449 8.01987C14.7172 8.39655 15.1622 8.56224 15.5389 8.38995C15.9156 8.21765 16.0813 7.77262 15.909 7.39594L14.5449 8.01987ZM18.7296 16.2249C18.4254 15.9439 17.9509 15.9626 17.6698 16.2669C17.3887 16.5711 17.4075 17.0456 17.7117 17.3267L18.7296 16.2249ZM23.05 22.2588C23.3543 22.5399 23.8288 22.5211 24.1099 22.2169C24.391 21.9126 24.3722 21.4381 24.0679 21.157L23.05 22.2588ZM11.4193 6.33828C12.7849 6.20436 14.0404 6.91693 14.5449 8.01987L15.909 7.39594C15.1151 5.66042 13.2191 4.65458 11.2729 4.84545L11.4193 6.33828ZM17.7117 17.3267L23.05 22.2588L24.0679 21.157L18.7296 16.2249L17.7117 17.3267Z" fill="white"/>
</svg>
