<svg width="27" height="27" viewBox="0 0 27 27" fill="none" xmlns="http://www.w3.org/2000/svg">
<path d="M13.5 0.78125C10.1345 0.78125 7.40625 3.3696 7.40625 6.5625C7.40625 9.7554 10.1345 12.3438 13.5 12.3438C16.8655 12.3438 19.5938 9.7554 19.5938 6.5625C19.5938 3.3696 16.8655 0.78125 13.5 0.78125Z" fill="black"/>
<path d="M7 15.4271C3.63451 15.4271 0.90625 18.0154 0.90625 21.2083V23.0403C0.90625 24.2015 1.79331 25.1916 3.00132 25.3787C9.95441 26.4557 17.0456 26.4557 23.9987 25.3787C25.2067 25.1916 26.0938 24.2015 26.0938 23.0403V21.2083C26.0938 18.0154 23.3655 15.4271 20 15.4271H19.4461C19.1463 15.4271 18.8484 15.4721 18.5634 15.5603L17.1569 15.996C14.7807 16.7322 12.2193 16.7322 9.84308 15.996L8.43662 15.5603C8.15163 15.4721 7.85371 15.4271 7.55391 15.4271H7Z" fill="black"/>
</svg>
